<svg width="142" height="50" viewBox="0 0 142 50" fill="none" xmlns="http://www.w3.org/2000/svg">
<g clip-path="url(#clip0_392_594)">
<mask id="mask0_392_594" style="mask-type:luminance" maskUnits="userSpaceOnUse" x="0" y="0" width="142" height="50">
<path d="M0 3.8147e-06H142V50H0V3.8147e-06Z" fill="white"/>
</mask>
<g mask="url(#mask0_392_594)">
<path d="M48.9263 24.9994C48.9263 38.8088 37.9855 50 24.4866 50C10.989 50 0.046875 38.8088 0.046875 24.9994C0.046875 11.1938 10.989 3.8147e-06 24.4866 3.8147e-06C37.9855 3.8147e-06 48.9263 11.1938 48.9263 24.9994Z" fill="#CE1126"/>
</g>
<mask id="mask1_392_594" style="mask-type:luminance" maskUnits="userSpaceOnUse" x="0" y="0" width="142" height="50">
<path d="M0 3.8147e-06H142V50H0V3.8147e-06Z" fill="white"/>
</mask>
<g mask="url(#mask1_392_594)">
<path d="M0.867331 18.685C0.867331 18.685 14.0573 11.0725 20.9534 30.7963C25.8608 44.8313 35.0763 45.2894 40.2216 44.1607C40.5262 44.0938 39.3328 44.9919 38.8582 45.1175C35.9041 45.8907 24.7347 47.6913 17.6772 33.305C12.1732 22.085 5.20107 20.5069 0.0831724 22.12C0.00469424 22.1457 0.867331 18.685 0.867331 18.685Z" fill="white" stroke="white" stroke-width="0.333333"/>
</g>
<mask id="mask2_392_594" style="mask-type:luminance" maskUnits="userSpaceOnUse" x="0" y="0" width="142" height="50">
<path d="M0 3.8147e-06H142V50H0V3.8147e-06Z" fill="white"/>
</mask>
<g mask="url(#mask2_392_594)">
<path d="M2.58996 13.8837C2.58996 13.8837 17.7624 4.97372 24.519 25.6925C30.0449 42.6343 39.4878 39.9218 44.5733 39.2856C44.7028 39.2693 44.6873 39.9456 43.9 40.1331C38.7977 41.3493 28.1365 43.18 20.8125 26.9887C13.4959 10.8125 1.85688 17.8206 0.952511 18.2956C0.63673 18.4618 2.58996 13.8837 2.58996 13.8837Z" fill="white" stroke="white" stroke-width="0.333333"/>
</g>
<mask id="mask3_392_594" style="mask-type:luminance" maskUnits="userSpaceOnUse" x="0" y="0" width="142" height="50">
<path d="M0 3.8147e-06H142V50H0V3.8147e-06Z" fill="white"/>
</mask>
<g mask="url(#mask3_392_594)">
<path d="M6.12507 8.47749C6.12507 8.47749 20.7806 1.46999 28.0529 19.7237C34.3349 35.4925 40.3073 34.5587 47.252 34.1094C47.308 34.1062 46.9991 34.8519 46.8608 34.8787C40.2637 36.0731 34.5603 38.1312 24.6908 21.7119C14.0563 4.02249 2.41791 14.0569 2.84954 13.3219C4.19987 11.0187 6.12507 8.47749 6.12507 8.47749Z" fill="white" stroke="white" stroke-width="0.333333"/>
</g>
<mask id="mask4_392_594" style="mask-type:luminance" maskUnits="userSpaceOnUse" x="0" y="0" width="142" height="50">
<path d="M0 3.8147e-06H142V50H0V3.8147e-06Z" fill="white"/>
</mask>
<g mask="url(#mask4_392_594)">
<path d="M6.5557 7.87196C8.36568 4.49821 13.5334 2.51758 14.056 2.43883C19.9175 1.55696 27.6078 3.37883 31.556 14.3595C36.8389 29.0557 43.8833 29.1957 48.496 29.442C48.5826 29.447 48.496 30.3201 48.3229 30.3563C48.1647 30.3907 48.0096 30.3626 47.8713 30.3626C37.5097 30.3626 35.7128 27.5501 27.3312 15.0513C20.6674 5.11321 14.7928 4.70758 8.53821 7.0932C8.13274 7.24821 6.4274 8.11008 6.5557 7.87196Z" fill="white" stroke="white" stroke-width="0.333333"/>
</g>
<mask id="mask5_392_594" style="mask-type:luminance" maskUnits="userSpaceOnUse" x="0" y="0" width="142" height="50">
<path d="M0 3.8147e-06H142V50H0V3.8147e-06Z" fill="white"/>
</mask>
<g mask="url(#mask5_392_594)">
<path d="M78.2968 34.3768V22.3512H76.0527V21.2606C78.2613 21.2606 80.6144 21.1518 83.1494 20.9699V24.5674C84.4879 22.0593 86.2256 20.9343 88.7973 20.9343C91.4407 20.9343 92.8527 22.1337 92.9249 24.4581C94.2647 22.0231 96.0024 20.9343 98.6102 20.9343C100.238 20.9343 101.397 21.3699 102.158 22.2781C102.7 22.9318 102.773 23.8037 102.773 24.8581V34.3768H104.982V35.4662H96.0024V34.3768H97.8846V24.3856C97.8846 23.0774 97.4505 22.4962 96.3998 22.4962C94.7368 22.4962 92.8888 24.7493 92.8888 27.6187V34.3768H94.6626V35.4662H86.2624V34.3768H88.1097V24.3856C88.1097 23.0774 87.6756 22.4962 86.6242 22.4962C84.9594 22.4962 83.1855 24.8212 83.1855 27.6187V34.3768H84.9594V35.4662H76.3411V34.3768H78.2968Z" fill="black"/>
</g>
<mask id="mask6_392_594" style="mask-type:luminance" maskUnits="userSpaceOnUse" x="0" y="0" width="142" height="50">
<path d="M0 3.8147e-06H142V50H0V3.8147e-06Z" fill="white"/>
</mask>
<g mask="url(#mask6_392_594)">
<path d="M107.95 34.3768V22.3143H105.561V21.1887C107.913 21.1887 110.34 21.1149 112.911 20.9343V24.5306C114.287 22.0231 116.025 20.8974 118.668 20.8974C122.433 20.8974 122.831 22.6418 122.831 26.0562V34.3768H124.932V35.4662H116.096V34.3768H117.943V24.3493C117.943 23.0418 117.509 22.4237 116.459 22.4237C114.793 22.4237 112.946 24.7849 112.946 27.5831V34.3768H114.757V35.4662H105.779V34.3768H107.95Z" fill="black"/>
</g>
<mask id="mask7_392_594" style="mask-type:luminance" maskUnits="userSpaceOnUse" x="0" y="0" width="142" height="50">
<path d="M0 3.8147e-06H142V50H0V3.8147e-06Z" fill="white"/>
</mask>
<g mask="url(#mask7_392_594)">
<path d="M130.036 12.6138C131.412 12.6138 132.534 13.7401 132.534 15.1569C132.534 16.5382 131.412 17.7007 130.001 17.7007C128.589 17.7007 127.503 16.5382 127.503 15.1569C127.503 13.7401 128.661 12.6138 130.036 12.6138ZM125.475 34.3769H127.611V22.3876H125.258V21.2976C127.864 21.2244 130.326 21.0788 132.607 20.8613V34.3769H134.852V35.4663H125.475V34.3769Z" fill="black"/>
</g>
<mask id="mask8_392_594" style="mask-type:luminance" maskUnits="userSpaceOnUse" x="0" y="0" width="142" height="50">
<path d="M0 3.8147e-06H142V50H0V3.8147e-06Z" fill="white"/>
</mask>
<g mask="url(#mask8_392_594)">
<path d="M52.5059 24.3684C52.5059 27.3484 53.6668 30.1915 55.8854 32.4858C58.2067 34.8508 60.8009 35.9802 63.9761 35.9802C67.1514 35.9802 69.7798 34.8508 72.0669 32.4858C74.3203 30.1915 75.4807 27.3484 75.4807 24.3684C75.4807 21.3877 74.2854 18.579 72.0669 16.2834C69.7461 13.9202 67.1514 12.7552 63.9761 12.7552C60.8009 12.7552 58.2067 13.9202 55.8854 16.2834C53.6668 18.579 52.5059 21.3877 52.5059 24.3684ZM59.1285 24.3684C59.1285 20.2227 59.1628 17.4484 59.7769 16.0777C60.5281 14.3996 61.7912 13.7821 63.9761 13.7821C66.1611 13.7821 67.4242 14.3996 68.1753 16.0777C68.7907 17.4815 68.8237 20.2227 68.8237 24.3684C68.8237 28.5121 68.7907 31.2546 68.1753 32.6583C67.4242 34.3365 66.1611 34.9534 63.9761 34.9534C61.7912 34.9534 60.5281 34.3365 59.7769 32.6583C59.1628 31.2877 59.1285 28.5121 59.1285 24.3684Z" fill="black"/>
</g>
</g>
<defs>
<clipPath id="clip0_392_594">
<rect width="142" height="50" fill="white"/>
</clipPath>
</defs>
</svg>
