<svg width="1200" height="433" viewBox="0 0 1200 433" fill="none" xmlns="http://www.w3.org/2000/svg">
<g clip-path="url(#clip0_2001_2)">
<mask id="mask0_2001_2" style="mask-type:luminance" maskUnits="userSpaceOnUse" x="5" y="8" width="411" height="418">
<path d="M5.33301 8.01562H416V425.625H5.33301V8.01562Z" fill="white"/>
</mask>
<g mask="url(#mask0_2001_2)">
<path d="M414.999 216.818C414.999 332.151 323.301 425.625 210.166 425.625C97.041 425.625 5.33789 332.151 5.33789 216.818C5.33789 101.51 97.041 8.01562 210.166 8.01562C323.301 8.01562 414.999 101.51 414.999 216.818Z" fill="#CE1126"/>
</g>
<path d="M12.2084 164.078C12.2084 164.078 122.75 100.495 180.547 265.229C221.677 382.453 298.912 386.281 342.037 376.854C344.589 376.292 334.589 383.797 330.609 384.844C305.849 391.302 212.24 406.339 153.089 286.182C106.964 192.474 48.5261 179.292 5.63552 192.766C4.97406 192.979 12.2084 164.078 12.2084 164.078Z" fill="white"/>
<mask id="mask1_2001_2" style="mask-type:luminance" maskUnits="userSpaceOnUse" x="4" y="144" width="347" height="254">
<path d="M4.9375 144H350.667V397.333H4.9375V144Z" fill="white"/>
</mask>
<g mask="url(#mask1_2001_2)">
<path d="M12.2084 164.078C12.2084 164.078 122.75 100.494 180.547 265.229C221.677 382.453 298.912 386.281 342.037 376.854C344.589 376.291 334.589 383.796 330.609 384.843C305.849 391.302 212.24 406.338 153.089 286.182C106.964 192.474 48.5261 179.291 5.63552 192.765C4.97406 192.979 12.2084 164.078 12.2084 164.078Z" stroke="white" stroke-width="1.30502"/>
</g>
<path d="M26.651 123.974C26.651 123.974 153.812 49.5572 210.437 222.604C256.75 364.104 335.891 341.448 378.516 336.135C379.599 336 379.469 341.646 372.87 343.214C330.109 353.37 240.755 368.661 179.375 233.432C118.052 98.3229 20.5052 156.859 12.927 160.823C10.2812 162.213 26.651 123.974 26.651 123.974Z" fill="white"/>
<mask id="mask2_2001_2" style="mask-type:luminance" maskUnits="userSpaceOnUse" x="4" y="100" width="383" height="258">
<path d="M4.9375 100H386.667V357.333H4.9375V100Z" fill="white"/>
</mask>
<g mask="url(#mask2_2001_2)">
<path d="M26.651 123.974C26.651 123.974 153.812 49.5572 210.437 222.604C256.75 364.104 335.891 341.448 378.516 336.135C379.599 336 379.469 341.646 372.87 343.213C330.109 353.37 240.755 368.661 179.375 233.432C118.052 98.3229 20.5052 156.859 12.9271 160.823C10.2812 162.213 26.651 123.974 26.651 123.974Z" stroke="white" stroke-width="1.30502"/>
</g>
<path d="M56.2762 78.8225C56.2762 78.8225 179.104 20.2965 240.052 172.75C292.703 304.453 342.761 296.656 400.964 292.901C401.432 292.875 398.844 299.104 397.682 299.328C342.396 309.302 294.594 326.494 211.875 189.359C122.75 41.6142 25.2085 125.421 28.8231 119.281C40.1408 100.046 56.2762 78.8225 56.2762 78.8225Z" fill="white" stroke="white" stroke-width="1.30502"/>
<path d="M59.8904 73.7652C75.0622 45.5881 118.37 29.0464 122.75 28.385C171.875 21.0204 236.328 36.2391 269.416 127.947C313.698 250.692 372.734 251.864 411.396 253.921C412.12 253.963 411.396 261.255 409.942 261.557C408.62 261.843 407.318 261.609 406.156 261.609C319.317 261.609 304.255 238.119 234.01 133.729C178.161 50.7235 128.927 47.3381 76.505 67.26C73.1091 68.5568 58.8175 75.7548 59.8904 73.7652Z" fill="white" stroke="white" stroke-width="1.30502"/>
<path d="M661.14 295.135V194.698H642.333V185.588C660.843 185.588 680.562 184.682 701.812 183.161V213.208C713.031 192.26 727.593 182.864 749.146 182.864C771.302 182.864 783.135 192.88 783.739 212.291C794.968 191.958 809.531 182.864 831.39 182.864C845.031 182.864 854.75 186.5 861.119 194.088C865.666 199.547 866.281 206.828 866.281 215.635V295.135H884.791V304.234H809.531V295.135H825.307V211.687C825.307 200.76 821.666 195.906 812.864 195.906C798.927 195.906 783.437 214.729 783.437 238.692V295.135H798.302V304.234H727.901V295.135H743.385V211.687C743.385 200.76 739.744 195.906 730.932 195.906C716.979 195.906 702.114 215.328 702.114 238.692V295.135H716.979V304.234H644.75V295.135H661.14Z" fill="white"/>
<path d="M909.672 295.136V194.391H889.646V184.99C909.364 184.99 929.703 184.37 951.25 182.865V212.901C962.781 191.959 977.349 182.558 999.505 182.558C1031.06 182.558 1034.4 197.125 1034.4 225.641V295.136H1051.99V304.235H977.942V295.136H993.422V211.386C993.422 200.464 989.786 195.302 980.989 195.302C967.026 195.302 951.547 215.026 951.547 238.396V295.136H966.718V304.235H891.474V295.136H909.672Z" fill="white"/>
<path d="M1094.78 113.37C1106.31 113.37 1115.71 122.776 1115.71 134.61C1115.71 146.146 1106.31 155.854 1094.47 155.854C1082.65 155.854 1073.54 146.146 1073.54 134.61C1073.54 122.776 1083.25 113.37 1094.78 113.37ZM1056.54 295.136H1074.45V195H1054.72V185.896C1076.57 185.287 1097.2 184.068 1116.32 182.256V295.136H1135.14V304.235H1056.54V295.136Z" fill="white"/>
<path d="M444.989 211.547C444.989 236.432 454.718 260.182 473.312 279.343C492.771 299.093 514.51 308.526 541.125 308.526C567.734 308.526 589.765 299.093 608.932 279.343C627.817 260.182 637.541 236.432 637.541 211.547C637.541 186.651 627.526 163.192 608.932 144.015C589.479 124.281 567.734 114.552 541.125 114.552C514.51 114.552 492.771 124.281 473.312 144.015C454.718 163.192 444.989 186.651 444.989 211.547ZM500.494 211.547C500.494 176.922 500.781 153.75 505.927 142.302C512.224 128.286 522.812 123.125 541.125 123.125C559.437 123.125 570.021 128.286 576.317 142.302C581.474 154.026 581.75 176.922 581.75 211.547C581.75 246.151 581.474 269.057 576.317 280.781C570.021 294.797 559.437 299.953 541.125 299.953C522.812 299.953 512.224 294.797 505.927 280.781C500.781 269.333 500.494 246.151 500.494 211.547Z" fill="white"/>
<mask id="mask3_2001_2" style="mask-type:luminance" maskUnits="userSpaceOnUse" x="1142" y="156" width="53" height="54">
<path d="M1142.67 156H1194.94V209.333H1142.67V156Z" fill="white"/>
</mask>
<g mask="url(#mask3_2001_2)">
<path d="M1164.75 181.177H1168.04C1171.84 181.177 1175.04 179.771 1175.04 176.218C1175.04 173.672 1173.23 171.13 1168.04 171.13C1166.55 171.13 1165.52 171.25 1164.75 171.364V181.177ZM1164.75 197.203H1160.12V168.244C1162.53 167.89 1164.84 167.552 1168.29 167.552C1172.63 167.552 1175.52 168.479 1177.24 169.75C1178.98 171.026 1179.89 172.979 1179.89 175.744C1179.89 179.552 1177.37 181.864 1174.25 182.776V183.015C1176.79 183.484 1178.53 185.797 1179.07 190.041C1179.78 194.557 1180.46 196.281 1180.92 197.203H1176.09C1175.42 196.281 1174.73 193.63 1174.15 189.828C1173.43 186.13 1171.62 184.75 1167.92 184.75H1164.75V197.203ZM1169.54 160.172C1158.15 160.172 1148.87 169.979 1148.87 182.099C1148.87 194.442 1158.15 204.135 1169.64 204.135C1181.14 204.25 1190.32 194.442 1190.32 182.198C1190.32 169.979 1181.14 160.172 1169.64 160.172H1169.54ZM1169.64 156.146C1183.77 156.146 1195.05 167.677 1195.05 182.099C1195.05 196.734 1183.77 208.166 1169.54 208.166C1155.41 208.166 1143.91 196.734 1143.91 182.099C1143.91 167.677 1155.41 156.146 1169.54 156.146H1169.64Z" fill="white"/>
</g>
</g>
<defs>
<clipPath id="clip0_2001_2">
<rect width="1200" height="433" fill="white"/>
</clipPath>
</defs>
</svg>
